<?xml version="1.0" encoding="UTF-8" standalone="no"?>
<!-- Created with Inkscape (http://www.inkscape.org/) -->

<svg
   xmlns:dc="http://purl.org/dc/elements/1.1/"
   xmlns:cc="http://creativecommons.org/ns#"
   xmlns:rdf="http://www.w3.org/1999/02/22-rdf-syntax-ns#"
   xmlns:svg="http://www.w3.org/2000/svg"
   xmlns="http://www.w3.org/2000/svg"
   xmlns:sodipodi="http://sodipodi.sourceforge.net/DTD/sodipodi-0.dtd"
   xmlns:inkscape="http://www.inkscape.org/namespaces/inkscape"
   version="1.1"
   id="svg869"
   width="347"
   height="347"
   viewBox="0 0 347 347"
   sodipodi:docname="o.png.svg"
   inkscape:version="0.92.5 (2060ec1f9f, 2020-04-08)">
  <metadata
     id="metadata875">
    <rdf:RDF>
      <cc:Work
         rdf:about="">
        <dc:format>image/svg+xml</dc:format>
        <dc:type
           rdf:resource="http://purl.org/dc/dcmitype/StillImage" />
        <dc:title></dc:title>
      </cc:Work>
    </rdf:RDF>
  </metadata>
  <defs
     id="defs873" />
  <sodipodi:namedview
     pagecolor="#ffffff"
     bordercolor="#666666"
     borderopacity="1"
     objecttolerance="10"
     gridtolerance="10"
     guidetolerance="10"
     inkscape:pageopacity="0"
     inkscape:pageshadow="2"
     inkscape:window-width="1920"
     inkscape:window-height="1031"
     id="namedview871"
     showgrid="false"
     inkscape:zoom="0.85484523"
     inkscape:cx="-63.344787"
     inkscape:cy="256.60228"
     inkscape:window-x="1360"
     inkscape:window-y="22"
     inkscape:window-maximized="1"
     inkscape:current-layer="svg869" />
  <path
     style="fill:#036b52;fill-opacity:1"
     d="M 131,302.61492 C 103.54786,292.75984 95.61962,288.80281 82.884327,278.60008 66.835477,265.74273 60.642788,258.32356 46.521655,235.03571 31.949177,211.00352 29.057508,201.51963 25.929801,167.5 24.526936,152.24124 24.424742,153.97453 27.427624,142.0957 28.842431,136.49899 30,130.91302 30,129.68244 c 0,-1.23059 0.594433,-3.12506 1.320962,-4.20993 0.726529,-1.08488 2.546061,-5.34751 4.043404,-9.47251 1.497344,-4.125 3.361965,-8.625 4.143603,-10 1.265986,-2.22703 1.426869,-2.28162 1.473442,-0.5 0.04098,1.56777 0.519439,1.24359 2.213866,-1.5 C 62.868092,72.146113 79.122575,55.181872 101,43.671213 c 11.03598,-5.806508 27.90456,-13.099988 28.62705,-12.377499 0.23344,0.233444 -7.12464,4.392131 -16.3513,9.241526 C 96.201202,49.509366 88.263201,54.461613 82,60.047111 c -3.611391,3.220624 -2.604145,3.082635 2.30055,-0.315166 7.082251,-4.906336 37.52763,-20.397742 49.32343,-25.097054 9.71426,-3.87005 13.6448,-4.678322 9.12602,-1.876665 -5.1844,3.21434 -3.5066,3.906771 5.36351,2.213532 2.96257,-0.565533 10.11149,-1.404041 15.88649,-1.863352 9.52205,-0.757331 15.48855,-0.558295 39,1.300995 13.83664,1.094204 3.37536,-1.278079 -12.5,-2.8346 l -15,-1.470695 12.5,0.398174 c 16.36747,0.521368 33.11111,3.494442 48.80461,8.665959 L 249.5,43.351785 260.9496,53.925893 c 6.29728,5.815759 14.84728,13.728727 19,17.584373 4.15272,3.855646 10.8129,9.883663 14.8004,13.395593 3.9875,3.51193 7.21447,6.88231 7.17105,7.489734 -0.0467,0.654087 -0.28461,0.594722 -0.58333,-0.145593 -0.27741,-0.6875 -0.92603,-1.25 -1.44138,-1.25 -1.92036,0 3.23608,8.017119 6.11347,9.50507 1.64461,0.85046 2.99019,1.98473 2.99019,2.52061 0,0.53588 1.05391,0.97432 2.34201,0.97432 1.97258,0 2.77751,1.11001 5.10285,7.03689 4.90805,12.5098 6.54063,19.23142 7.6419,31.46311 1.8435,20.47547 -0.10093,42.83511 -5.58534,64.2279 -4.17277,16.27651 -6.38191,20.27774 -20.41384,36.97397 -1.01778,1.21103 -1.63602,2.41635 -1.37388,2.67849 1.1283,1.1283 -1.17222,7.07837 -4.88841,12.64341 -4.13505,6.19229 -10.46777,11.34654 -22.7787,18.53977 -3.54938,2.07388 -8.15432,5.50597 -10.23321,7.62685 -3.01904,3.08003 -4.27492,3.73187 -6.23985,3.23871 -1.74455,-0.43785 -3.42182,0.10513 -5.76679,1.86687 -4.97804,3.73993 -13.12988,7.71993 -17.14724,8.37186 -2.79163,0.45302 -4.88358,-0.10221 -9.56514,-2.5387 -4.97139,-2.58732 -6.4409,-2.94787 -8.62712,-2.11667 -3.1897,1.21272 -4.00908,0.77421 -6.0967,-3.26281 -3.14683,-6.0853 0.0964,-26.64094 5.28775,-33.51423 C 213.19454,253.87748 221.53387,249 224.73891,249 c 0.99297,0 3.37043,-1.28631 5.28325,-2.85846 1.91281,-1.57216 5.95284,-4.04688 8.97784,-5.49939 3.025,-1.45251 6.46381,-3.4287 7.64179,-4.39154 4.21388,-3.44425 17.00485,-23.81744 20.70211,-32.97388 6.97491,-17.27369 8.01609,-22.72334 8.07711,-42.27673 0.0536,-17.16599 -0.007,-17.68132 -3.17785,-27 -1.77785,-5.225 -4.35987,-11.45843 -5.73781,-13.85207 C 263.60779,115.11454 263.42553,114 265.5,114 c 2.50036,0 1.72506,-1.48733 -3.25,-6.23477 -2.6125,-2.49298 -5.65401,-6.0475 -6.75891,-7.898955 -1.20386,-2.017267 -4.23147,-4.568501 -7.555,-6.366275 -3.05035,-1.65 -6.87134,-3.955504 -8.49109,-5.123341 -8.63829,-6.228197 -23.23224,-11.680685 -42.48846,-15.87424 -22.20686,-4.836134 -17.89266,-5.69287 7.04346,-1.398727 7.78382,1.340418 15.03595,3.412675 22.44225,6.412751 6.01824,2.437811 11.12268,4.251956 11.34321,4.031431 0.64641,-0.646406 -9.80575,-6.36864 -15.78546,-8.642051 -15.4466,-5.87261 -34.29232,-8.46961 -55,-7.579178 -15.85372,0.681711 -27.35794,3.202161 -37.5,8.215838 -9.10582,4.501418 -28.80127,19.930692 -33.786165,26.467837 -5.674045,7.44089 -11.210592,19.97649 -15.298982,34.63927 C 76.175024,149.8555 75.054994,153 73.87868,153 c -1.188581,0 -1.124716,-0.81501 0.670426,-8.55551 0.852008,-3.67379 1.302008,-6.92671 1,-7.22872 -1.976503,-1.9765 -3.408386,5.84371 -4.182014,22.84002 C 70.645073,175.91826 71.248757,182 73.545313,182 74.345391,182 75,182.91793 75,184.03984 c 0,1.12191 0.838311,3.70941 1.862913,5.75 1.024602,2.04059 2.661827,6.18516 3.638278,9.21016 2.590437,8.02506 5.730947,13.85713 11.072504,20.56216 21.993365,27.60735 53.658095,48.25564 95.926305,62.55267 l 14,4.73544 -3.9922,1.68948 c -3.21324,1.35983 -6.26534,1.60844 -15.64216,1.27412 -9.90883,-0.35328 -11.56633,-0.19745 -11.09042,1.04274 0.4647,1.211 -0.35852,1.35298 -4.85785,0.83782 -14.32084,-1.63968 -18.91715,-1.90274 -18.91452,-1.08252 0.002,0.48845 2.56471,2.23809 5.69588,3.88809 8.38934,4.42085 8.06081,5.5 -1.67441,5.5 -5.51223,0 -7.92944,0.34451 -7.4832,1.06653 0.76123,1.2317 -2.32642,3.86701 -4.54112,3.87585 -0.825,0.003 -4.425,-1.04406 -8,-2.32746 z M 79.971789,122.34585 c 2.494316,-6.66665 2.328799,-10.54191 -0.243488,-5.70082 C 78.030074,119.84112 76.285515,128 77.300343,128 c 0.305777,0 1.507928,-2.54437 2.671446,-5.65415 z m 195.448721,-4.50292 c -2.76559,-5.35344 -6.66764,-10.92914 -7.2447,-10.35207 -0.55955,0.55954 2.79404,7.06272 6.09369,11.81672 2.57923,3.71604 3.33231,2.75776 1.15101,-1.46465 z M 261.56989,99.113092 c -0.3467,-0.560984 -2.07926,-2.026001 -3.85013,-3.255593 L 254.5,93.621876 l 1.97623,2.439062 c 2.55559,3.154097 4.76687,5.029302 5.3009,4.495262 0.23273,-0.23273 0.13947,-0.882124 -0.20724,-1.443108 z m 33.93233,-3.108794 C 293.09926,91.357488 278.51148,73.620199 273.37228,69.096494 267.92244,64.299346 245.18119,51 242.42815,51 c -0.35108,0 2.87715,2.522246 7.17386,5.604991 16.03027,11.501197 27.01443,21.328307 38.72413,34.645009 7.09679,8.070721 9.82616,9.87899 7.17608,4.754298 z M 95,92 c 0,-0.55 -0.198442,-1 -0.440983,-1 -0.242541,0 -0.719098,0.45 -1.059017,1 -0.339919,0.55 -0.141476,1 0.440983,1 C 94.523442,93 95,92.55 95,92 Z m 26.3704,-17.84669 c 10.37872,-6.639907 21.17872,-12.865398 24,-13.834424 3.57971,-1.229525 4.4963,-1.860933 3.0336,-2.089746 C 140.06541,56.924721 100,80.18421 100,86.329495 c 0,1.398172 1.39453,0.603614 21.3704,-12.176185 z M 245.5,86 c -0.33992,-0.55 -1.06803,-1 -1.61803,-1 -0.55,0 -0.72189,0.45 -0.38197,1 0.33992,0.55 1.06803,1 1.61803,1 0.55,0 0.72189,-0.45 0.38197,-1 z m -152,-3 c 0.339919,-0.55 0.168034,-1 -0.381966,-1 -0.55,0 -1.278115,0.45 -1.618034,1 -0.339919,0.55 -0.168034,1 0.381966,1 0.55,0 1.278115,-0.45 1.618034,-1 z m 20.80685,-14.201024 c 11.21204,-7.213175 19.85977,-11.168755 31.48067,-14.399653 6.94286,-1.930288 8.49354,-4.019695 2.24126,-3.019916 -6.13543,0.981095 -19.77868,5.481749 -27.52878,9.081236 -7.30936,3.394786 -16.80762,10.377119 -18.55321,13.638774 -1.749,3.268036 0.62144,2.251506 12.36006,-5.300441 z M 111.38249,55.840665 C 130.73391,46.745029 138.13441,44.29887 151.5,42.580224 c 22.87475,-2.941403 29.63269,-2.965971 47.5,-0.172685 9.075,1.41874 18.07203,3.032438 19.9934,3.585994 4.34141,1.250785 5.28406,1.264416 4.54321,0.0657 -0.34488,-0.558025 0.85163,-0.708213 2.94098,-0.369157 6.44953,1.046613 3.6371,-1.284691 -4.22759,-3.504381 -13.50762,-3.812321 -25.21733,-5.375947 -44.25,-5.908808 -21.77543,-0.609651 -27.93439,0.168497 -45.66455,5.769443 -17.22563,5.441563 -17.73982,5.532157 -10.9854,1.93551 3.21752,-1.713295 5.62879,-3.336336 5.35837,-3.606757 -0.86634,-0.86634 -12.42168,4.480484 -19.42528,8.988361 C 103.55241,51.764731 98.925,54.517938 97,55.481683 c -4.467581,2.23668 -8,5.461743 -8,7.303922 0,2.522106 6.593643,0.476201 22.38249,-6.94494 z M 170.5,55 c 0.36058,-0.583423 -0.65628,-1 -2.44098,-1 C 166.37656,54 165,54.45 165,55 c 0,0.55 1.09844,1 2.44098,1 1.34254,0 2.7191,-0.45 3.05902,-1 z m 1.5,-6 c 0,-1.152516 -2.40127,-1.152516 -6,0 -2.12378,0.680153 -1.86042,0.815641 1.75,0.90032 C 170.0875,49.955144 172,49.55 172,49 Z m 49,-12.383369 c 0,-0.210852 -0.9,-0.618724 -2,-0.90638 -1.1,-0.287656 -2,-0.115141 -2,0.383369 0,0.498509 0.9,0.90638 2,0.90638 1.1,0 2,-0.172516 2,-0.383369 z M 73.015313,172.75 C 73.027695,170.93056 73.216126,170.78704 74,172 c 1.252922,1.93876 1.252922,3 0,3 -0.55,0 -0.993109,-1.0125 -0.984687,-2.25 z M 141.50404,76.156527 c 1.34841,-1.266418 13.42594,-5.55988 14.00659,-4.97923 0.25451,0.254507 -3.01695,1.689415 -7.26991,3.188684 -4.25295,1.499268 -7.28446,2.305014 -6.73668,1.790546 z M 240.75,38.428025 C 237.01156,36.399887 237.23912,35.555172 241,37.5 c 1.65,0.853248 3,1.764804 3,2.02568 0,0.643497 -0.10745,0.607208 -3.25,-1.097655 z M 222,32 c -1.29269,-0.835399 -1.26629,-0.971491 0.19098,-0.984687 0.93004,-0.0084 1.9691,0.434687 2.30902,0.984687 0.78218,1.265597 -0.54163,1.265597 -2.5,0 z m -75.01622,-4.950522 c 5.41033,-1.386067 12.92333,-2.199841 10.4284,-1.129558 -1.1483,0.492602 -4.7483,1.149086 -8,1.458852 -4.60363,0.438555 -5.14111,0.365672 -2.4284,-0.329294 z M 171.5,26 l -5,-0.685793 5,-0.0695 c 2.75,-0.03822 7.25,0.280953 10,0.709283 l 5,0.778781 -5,-0.02349 C 178.75,26.696363 174.25,26.377186 171.5,26 Z"
     id="path879"
     inkscape:connector-curvature="0" />
</svg>
