<?xml version="1.0" encoding="UTF-8" standalone="no"?>
<!-- Created with Inkscape (http://www.inkscape.org/) -->

<svg
   xmlns:dc="http://purl.org/dc/elements/1.1/"
   xmlns:cc="http://creativecommons.org/ns#"
   xmlns:rdf="http://www.w3.org/1999/02/22-rdf-syntax-ns#"
   xmlns:svg="http://www.w3.org/2000/svg"
   xmlns="http://www.w3.org/2000/svg"
   xmlns:sodipodi="http://sodipodi.sourceforge.net/DTD/sodipodi-0.dtd"
   xmlns:inkscape="http://www.inkscape.org/namespaces/inkscape"
   version="1.1"
   id="svg1007"
   width="683"
   height="683"
   viewBox="0 0 683 683"
   sodipodi:docname="x.png.svg"
   inkscape:version="0.92.5 (2060ec1f9f, 2020-04-08)">
  <metadata
     id="metadata1013">
    <rdf:RDF>
      <cc:Work
         rdf:about="">
        <dc:format>image/svg+xml</dc:format>
        <dc:type
           rdf:resource="http://purl.org/dc/dcmitype/StillImage" />
        <dc:title></dc:title>
      </cc:Work>
    </rdf:RDF>
  </metadata>
  <defs
     id="defs1011" />
  <sodipodi:namedview
     pagecolor="#ffffff"
     bordercolor="#666666"
     borderopacity="1"
     objecttolerance="10"
     gridtolerance="10"
     guidetolerance="10"
     inkscape:pageopacity="0"
     inkscape:pageshadow="2"
     inkscape:window-width="1920"
     inkscape:window-height="1031"
     id="namedview1009"
     showgrid="false"
     inkscape:zoom="0.34553441"
     inkscape:cx="-419.7501"
     inkscape:cy="540.30908"
     inkscape:window-x="1360"
     inkscape:window-y="22"
     inkscape:window-maximized="1"
     inkscape:current-layer="svg1007" />
  <path
     style="fill:#036b52;fill-opacity:1"
     d="m 182.38294,643.41671 c -1.71438,-0.84576 -3.6385,-2.68219 -4.27582,-4.08095 C 176.58242,635.9894 178.80349,631.1543 190.66421,612 202.44039,592.98222 208,583.39342 208,582.10053 c 0,-1.32027 -4.72168,-0.46834 -11.78033,2.1255 -3.58729,1.31822 -7.66197,4.14864 -12.70827,8.82764 -4.08537,3.788 -8.57756,7.17582 -9.98266,7.52847 -5.93873,1.49053 -7.09539,-4.37429 -3.00559,-15.23987 1.38773,-3.68686 2.3895,-7.10431 2.22616,-7.59433 -0.16333,-0.49001 -3.88625,2.09397 -8.27314,5.7422 C 156.61044,590.03143 142.55577,598 138.8842,598 137.717,598 137,597.2954 137,596.1484 137,593.41942 167.88298,544.43266 234.42798,441.60756 271.33161,384.58421 282,367.1724 282,363.9656 c 0,-2.20337 -12.17255,-13.87697 -53,-50.82752 -22.825,-20.65759 -49.6,-44.98547 -59.5,-54.06197 -43.48627,-39.86901 -77.253973,-75.65547 -74.235684,-78.67376 1.708188,-1.70819 20.680184,11.69541 46.696484,32.99077 6.64746,5.44121 12.26768,9.71173 12.48937,9.49004 0.22169,-0.22169 -2.90599,-4.81921 -6.95041,-10.21672 -4.04441,-5.39751 -9.25457,-13.49303 -11.57813,-17.99004 -5.29635,-10.25058 -8.03664,-13.70945 -29.44719,-37.16912 C 78.458925,126.81052 73.63282,120.11982 74.232972,112.8091 l 0.353744,-4.3091 23.956642,24.09451 c 30.655792,30.83222 35.306182,34.9412 44.273342,39.11891 4.02419,1.87483 7.73799,3.26835 8.2529,3.09671 0.5149,-0.17163 -5.39942,-8.18663 -13.14293,-17.81109 -12.98331,-16.13705 -18.91819,-24.98214 -18.93225,-28.2158 -0.0154,-3.5341 -2.53376,-9.44461 -6.48067,-15.20966 -4.53934,-6.63039 -4.4686,-7.57358 0.56804,-7.57358 2.98832,0 2.36562,-2.07294 -4.11164,-13.68761 -3.31641,-5.946815 -6.2902,-11.82489 -6.60841,-13.06239 -0.94004,-3.655808 0.40991,-7.25 2.72305,-7.25 3.6006,0 5.64301,1.821263 9.23434,8.234477 3.79926,6.784537 13.48441,16.692359 28.18314,28.831113 12.03843,9.94179 18.59734,14.00396 23.72084,14.69116 l 4.25892,0.57124 -5.49101,-6.35593 C 161.97096,114.47629 154.4375,106.29716 148.25,99.796211 137.74929,88.76355 137,87.709031 137,83.963401 c 0,-3.395023 0.39784,-4.164163 2.58385,-4.99528 1.92469,-0.731766 3.44427,-0.57408 5.95665,0.61812 10.98312,5.211832 74.19516,63.367749 143.9595,132.444659 47.60952,47.1404 56.07558,54.84106 58.05495,52.80634 1.91949,-1.97317 22.83923,-35.61857 40.62481,-65.33724 17.15748,-28.66915 23.66031,-41.19578 41.78923,-80.5 14.543,-31.529809 17.8818,-38 19.60906,-38 1.91552,0 2.88516,8.481394 1.60412,14.031151 -0.59992,2.598994 -4.98202,14.567709 -9.73799,26.597149 -11.17237,28.2586 -12.80759,32.9182 -11.03637,31.44821 0.75623,-0.62761 7.38634,-9.95474 14.73358,-20.72694 21.34513,-31.29531 24.68222,-35.526317 30.04001,-38.086865 2.6894,-1.285293 6.58447,-4.476653 9.1538,-7.5 C 486.79502,83.868217 489.97588,80.15 491.4038,78.5 l 2.5962,-3 2.5,2.805764 c 3.0354,3.406647 3.13837,6.512009 0.45042,13.584125 -1.22921,3.234108 -1.92895,7.102391 -1.7495,9.671491 l 0.29908,4.2816 5.83786,-4.42149 C 510.46077,94.511965 511.8887,95.572924 507.5,106 c -2.67928,6.36568 -3.01017,8 -1.61972,8 1.72488,0 10.83147,-12.94128 15.93194,-22.640707 9.73468,-18.512181 25.83264,-37.348715 40.19195,-47.029362 4.18795,-2.823405 10.91573,-8.816878 15.22411,-13.562473 7.91209,-8.715015 12.90888,-12.030293 14.99216,-9.947014 3.22688,3.226881 1.64868,20.489531 -2.91554,31.890763 -3.01496,7.531212 -2.88248,7.739205 5.59874,8.790321 16.59305,2.056452 16.25937,5.515449 -3.0385,31.498472 -12.75047,17.16747 -29.57235,41.62329 -54.33995,79 -39.06214,58.94855 -54.58268,83.95752 -79.74697,128.5 C 437.27049,336.80005 433,345.06177 433,348.43612 c 0,3.18344 8.37067,13.59918 39.43048,49.06388 19.47633,22.23846 33.10552,36.06826 62.06952,62.98316 33.64619,31.26584 52.81834,51.12177 72.43349,75.01684 9.02976,11 19.12831,23.15 22.44123,27 9.77746,11.36257 9.61206,11.09444 5.10703,8.27886 -2.21004,-1.38125 -8.22178,-5.27154 -13.35944,-8.64511 -9.21011,-6.04768 -11.97266,-7.33524 -10.47846,-4.88375 0.41904,0.6875 7.4206,10.15456 15.55902,21.0379 C 639.26363,595.7538 642.544,601 640.40437,601 638.50234,601 623.50658,588.71332 599.5,567.48525 c -64.14239,-56.71857 -65.76667,-58.04752 -78.96754,-64.60947 -5.78315,-2.87471 -10.80518,-4.93639 -11.16006,-4.58151 -0.35488,0.35488 5.40687,7.29635 12.80388,15.42548 C 551.69423,546.15922 577,577.26968 577,581.11906 c 0,2.09139 -5.48765,6.8818 -8.53925,7.45428 -5.93265,1.11297 -14.55473,-5.06046 -40.32737,-28.87451 -19.25343,-17.79027 -19.06411,-17.66468 -25.61128,-16.98896 -3.05131,0.31493 -6.07768,0.0632 -7.33604,-0.61029 -4.01364,-2.14804 -21.65142,-16.72668 -37.72114,-31.17871 -21.39534,-19.24152 -27.40767,-24.31145 -28.0586,-23.66052 -0.29972,0.29971 -0.003,2.35497 0.66017,4.56722 1.62031,5.40812 0.78764,7.17243 -3.38507,7.17243 -5.03243,0 -9.59892,-3.76692 -34.74553,-28.66178 C 379.52563,458.0522 369.00024,448 368.54613,448 c -0.99394,0 -0.50402,-0.59978 -13.57955,16.62446 -5.79338,7.63155 -23.73385,33.61075 -39.8677,57.73156 -18.88351,28.23167 -31.67516,46.33748 -35.90491,50.82124 -10.35452,10.97634 -34.30146,25.70379 -41.94397,25.79569 -4.23362,0.0509 -2.05272,-5.07876 7.64129,-17.97295 3.92822,-5.225 8.32644,-11.975 9.77383,-15 C 256.99618,561.12813 265,539.74303 265,538.38661 c 0,-1.21307 -6.71329,4.43429 -17.07967,14.36775 -11.87863,11.38258 -13.88351,14.45648 -21.35757,32.74564 -6.10968,14.95053 -25.32727,53.03639 -28.44605,56.37506 -2.50216,2.67857 -3.61174,3.12169 -7.76792,3.10217 -2.66683,-0.0125 -6.25147,-0.71476 -7.96585,-1.56052 z m 28.40398,-91.48818 c 10.75516,-16.70963 15.45518,-25.02933 14.60284,-25.84903 -0.78014,-0.75027 -9.34303,8.70384 -14.96907,16.52704 -4.51115,6.27291 -9.71831,16.69527 -10.86229,21.74133 -1.26401,5.57552 1.89524,2.08122 11.22852,-12.41934 z m 32.3104,-51.13869 c 2.11073,-4.11585 2.3839,-5.78984 0.94483,-5.78984 -1.07572,0 -5.32617,6.92914 -7.0451,11.485 l -1.12624,2.985 2.66191,-2.485 c 1.46405,-1.36675 3.51812,-4.15457 4.5646,-6.19516 z M 483,451.56809 c 0,-1.72019 -5.82304,-6.07838 -6.80689,-5.09454 C 475.57787,447.0888 481.3045,453 482.51578,453 482.7821,453 483,452.35564 483,451.56809 Z M 267,318.15048 c 0,-3.48689 -15.08241,-18.4014 -16.83562,-16.6482 C 249.70653,301.96014 265.83665,319 266.72792,319 266.87757,319 267,318.61772 267,318.15048 Z m 160.52392,-13.22584 c 0.91774,-2.89156 -0.39789,-3.81748 -2.10568,-1.48194 -1.80274,2.4654 -1.79833,3.5573 0.0144,3.5573 0.78794,0 1.72903,-0.93391 2.09131,-2.07536 z m -190.37244,-7.24212 c -1.67612,-2.0196 -9.20163,-5.95991 -8.57843,-4.49161 0.93833,2.21076 8.83652,8.08039 9.24083,6.86744 0.20636,-0.61908 -0.0917,-1.6882 -0.6624,-2.37583 z M 443.65524,282.25 c 6.75669,-8.08765 14.11311,-19.81498 13.07863,-20.84947 -0.87686,-0.87685 -8.20168,7.26647 -12.17158,13.53166 -7.65169,12.0757 -8.13422,15.96861 -0.90705,7.31781 z m -224.39081,-0.84777 c 1.12793,-1.12792 -0.50892,-3.4773 -3.50051,-5.02431 -2.2606,-1.169 -3.2717,-1.26535 -4.12882,-0.39345 -0.85043,0.86508 -0.43145,1.76418 1.67066,3.58509 2.75922,2.39012 4.77978,3.01157 5.95867,1.83267 z m 173.245,-19.52145 c 13.11873,-19.91299 48.98881,-79.92441 47.71246,-79.82398 -0.90539,0.0712 -8.75159,9.6324 -17.11823,20.8598 -15.0365,20.17782 -28.36587,42.57165 -33.57109,56.40064 -2.3542,6.25454 -3.10584,9.68276 -2.12294,9.68276 0.2253,0 2.52021,-3.20365 5.0998,-7.11922 z m -193.27521,1.08991 C 195.92001,259.95594 194,259.21877 194,260.96104 c 0,1.69037 4.30504,5.03998 6.43856,5.00965 1.81959,-0.0259 1.6783,-0.37784 -1.20434,-3 z M 306.5,247.30751 c -20.00784,-19.34599 -72.10719,-64.2814 -79.79478,-68.82257 l -3.04744,-1.80016 2.87023,3.76305 c 3.06966,4.02454 41.75989,41.34006 52.51042,50.64467 11.9685,10.35876 36.18551,27.88752 38.46157,27.83926 0.55,-0.0117 -4.4,-5.24257 -11,-11.62425 z m 155.69528,8.0054 C 465.20547,252.42897 465.85794,250 463.62244,250 c -1.70203,0 -3.18937,1.73073 -4.53985,5.28277 -1.30406,3.42993 -0.44461,3.43825 3.11269,0.0301 z m -8.86222,-90.37985 c -0.80298,-0.80298 -1.77217,-0.19691 -3.56977,2.23235 -4.39078,5.93365 -4.16607,7.64231 0.40798,3.10224 3.10635,-3.08328 3.96477,-4.53161 3.16179,-5.33459 z M 213,163.5 c -1.29175,-1.375 -3.05769,-2.48578 -3.92431,-2.4684 -1.11595,0.0224 -0.75705,0.75181 1.23007,2.5 3.66149,3.22123 5.72735,3.197 2.69424,-0.0316 z"
     id="path1560"
     inkscape:connector-curvature="0" />
</svg>
